<svg width="469" height="321" viewBox="0 0 469 321" fill="none" xmlns="http://www.w3.org/2000/svg">
<path opacity="0.6" d="M3.6252 81.6058H6.6152V83.0488H1.8052V73.9748H3.6252V81.6058ZM10.97 83.1658C10.2767 83.1658 9.65267 83.0142 9.098 82.7108C8.54333 82.3988 8.10567 81.9612 7.785 81.3978C7.473 80.8345 7.317 80.1845 7.317 79.4478C7.317 78.7112 7.47733 78.0612 7.798 77.4978C8.12733 76.9345 8.57367 76.5012 9.137 76.1978C9.70033 75.8858 10.3287 75.7298 11.022 75.7298C11.7153 75.7298 12.3437 75.8858 12.907 76.1978C13.4703 76.5012 13.9123 76.9345 14.233 77.4978C14.5623 78.0612 14.727 78.7112 14.727 79.4478C14.727 80.1845 14.558 80.8345 14.22 81.3978C13.8907 81.9612 13.44 82.3988 12.868 82.7108C12.3047 83.0142 11.672 83.1658 10.97 83.1658ZM10.97 81.5798C11.2993 81.5798 11.607 81.5018 11.893 81.3458C12.1877 81.1812 12.4217 80.9385 12.595 80.6178C12.7683 80.2972 12.855 79.9072 12.855 79.4478C12.855 78.7632 12.673 78.2388 12.309 77.8748C11.9537 77.5022 11.516 77.3158 10.996 77.3158C10.476 77.3158 10.0383 77.5022 9.683 77.8748C9.33633 78.2388 9.163 78.7632 9.163 79.4478C9.163 80.1325 9.332 80.6612 9.67 81.0338C10.0167 81.3978 10.45 81.5798 10.97 81.5798ZM17.882 76.9648C18.116 76.5835 18.4194 76.2845 18.792 76.0678C19.1734 75.8512 19.6067 75.7428 20.092 75.7428V77.6538H19.611C19.039 77.6538 18.6057 77.7882 18.311 78.0568C18.025 78.3255 17.882 78.7935 17.882 79.4608V83.0488H16.062V75.8468H17.882V76.9648ZM28.0129 79.2918C28.0129 79.5518 27.9956 79.7858 27.9609 79.9938H22.6959C22.7392 80.5138 22.9212 80.9212 23.2419 81.2158C23.5626 81.5105 23.9569 81.6578 24.4249 81.6578C25.1009 81.6578 25.5819 81.3675 25.8679 80.7868H27.8309C27.6229 81.4802 27.2242 82.0522 26.6349 82.5028C26.0456 82.9448 25.3219 83.1658 24.4639 83.1658C23.7706 83.1658 23.1466 83.0142 22.5919 82.7108C22.0459 82.3988 21.6169 81.9612 21.3049 81.3978C21.0016 80.8345 20.8499 80.1845 20.8499 79.4478C20.8499 78.7025 21.0016 78.0482 21.3049 77.4848C21.6082 76.9215 22.0329 76.4882 22.5789 76.1848C23.1249 75.8815 23.7532 75.7298 24.4639 75.7298C25.1486 75.7298 25.7596 75.8772 26.2969 76.1718C26.8429 76.4665 27.2632 76.8868 27.5579 77.4328C27.8612 77.9702 28.0129 78.5898 28.0129 79.2918ZM26.1279 78.7718C26.1192 78.3038 25.9502 77.9312 25.6209 77.6538C25.2916 77.3678 24.8886 77.2248 24.4119 77.2248C23.9612 77.2248 23.5799 77.3635 23.2679 77.6408C22.9646 77.9095 22.7782 78.2865 22.7089 78.7718H26.1279ZM38.2853 75.7428C39.1693 75.7428 39.88 76.0158 40.4173 76.5618C40.9633 77.0992 41.2363 77.8532 41.2363 78.8238V83.0488H39.4163V79.0708C39.4163 78.5075 39.2733 78.0785 38.9873 77.7838C38.7013 77.4805 38.3113 77.3288 37.8173 77.3288C37.3233 77.3288 36.929 77.4805 36.6343 77.7838C36.3483 78.0785 36.2053 78.5075 36.2053 79.0708V83.0488H34.3853V79.0708C34.3853 78.5075 34.2423 78.0785 33.9563 77.7838C33.6703 77.4805 33.2803 77.3288 32.7863 77.3288C32.2837 77.3288 31.885 77.4805 31.5903 77.7838C31.3043 78.0785 31.1613 78.5075 31.1613 79.0708V83.0488H29.3413V75.8468H31.1613V76.7178C31.3953 76.4145 31.6943 76.1762 32.0583 76.0028C32.431 75.8295 32.8383 75.7428 33.2803 75.7428C33.8437 75.7428 34.3463 75.8642 34.7883 76.1068C35.2303 76.3408 35.5727 76.6788 35.8153 77.1208C36.0493 76.7048 36.3873 76.3712 36.8293 76.1198C37.28 75.8685 37.7653 75.7428 38.2853 75.7428ZM47.8811 73.9748V83.0488H46.0611V73.9748H47.8811ZM51.4992 76.8868C51.7332 76.5575 52.0539 76.2845 52.4612 76.0678C52.8772 75.8425 53.3496 75.7298 53.8782 75.7298C54.4936 75.7298 55.0482 75.8815 55.5422 76.1848C56.0449 76.4882 56.4392 76.9215 56.7252 77.4848C57.0199 78.0395 57.1672 78.6852 57.1672 79.4218C57.1672 80.1585 57.0199 80.8128 56.7252 81.3848C56.4392 81.9482 56.0449 82.3858 55.5422 82.6978C55.0482 83.0098 54.4936 83.1658 53.8782 83.1658C53.3496 83.1658 52.8816 83.0575 52.4742 82.8408C52.0756 82.6242 51.7506 82.3512 51.4992 82.0218V86.4808H49.6792V75.8468H51.4992V76.8868ZM55.3082 79.4218C55.3082 78.9885 55.2172 78.6158 55.0352 78.3038C54.8619 77.9832 54.6279 77.7405 54.3332 77.5758C54.0472 77.4112 53.7352 77.3288 53.3972 77.3288C53.0679 77.3288 52.7559 77.4155 52.4612 77.5888C52.1752 77.7535 51.9412 77.9962 51.7592 78.3168C51.5859 78.6375 51.4992 79.0145 51.4992 79.4478C51.4992 79.8812 51.5859 80.2582 51.7592 80.5788C51.9412 80.8995 52.1752 81.1465 52.4612 81.3198C52.7559 81.4845 53.0679 81.5668 53.3972 81.5668C53.7352 81.5668 54.0472 81.4802 54.3332 81.3068C54.6279 81.1335 54.8619 80.8865 55.0352 80.5658C55.2172 80.2452 55.3082 79.8638 55.3082 79.4218ZM61.2458 83.1658C60.6564 83.1658 60.1278 83.0618 59.6598 82.8538C59.1918 82.6372 58.8191 82.3468 58.5418 81.9828C58.2731 81.6188 58.1258 81.2158 58.0998 80.7738H59.9328C59.9674 81.0512 60.1018 81.2808 60.3358 81.4628C60.5784 81.6448 60.8774 81.7358 61.2328 81.7358C61.5794 81.7358 61.8481 81.6665 62.0388 81.5278C62.2381 81.3892 62.3378 81.2115 62.3378 80.9948C62.3378 80.7608 62.2164 80.5875 61.9738 80.4748C61.7398 80.3535 61.3628 80.2235 60.8428 80.0848C60.3054 79.9548 59.8634 79.8205 59.5168 79.6818C59.1788 79.5432 58.8841 79.3308 58.6328 79.0448C58.3901 78.7588 58.2688 78.3732 58.2688 77.8878C58.2688 77.4892 58.3814 77.1252 58.6068 76.7958C58.8408 76.4665 59.1701 76.2065 59.5948 76.0158C60.0281 75.8252 60.5351 75.7298 61.1158 75.7298C61.9738 75.7298 62.6584 75.9465 63.1698 76.3798C63.6811 76.8045 63.9628 77.3808 64.0148 78.1088H62.2728C62.2468 77.8228 62.1254 77.5975 61.9088 77.4328C61.7008 77.2595 61.4191 77.1728 61.0638 77.1728C60.7344 77.1728 60.4788 77.2335 60.2968 77.3548C60.1234 77.4762 60.0368 77.6452 60.0368 77.8618C60.0368 78.1045 60.1581 78.2908 60.4008 78.4208C60.6434 78.5422 61.0204 78.6678 61.5318 78.7978C62.0518 78.9278 62.4808 79.0622 62.8188 79.2008C63.1568 79.3395 63.4471 79.5562 63.6898 79.8508C63.9411 80.1368 64.0711 80.5182 64.0798 80.9948C64.0798 81.4108 63.9628 81.7835 63.7288 82.1128C63.5034 82.4422 63.1741 82.7022 62.7408 82.8928C62.3161 83.0748 61.8178 83.1658 61.2458 83.1658ZM72.3728 75.8468V83.0488H70.5398V82.1388C70.3058 82.4508 69.9981 82.6978 69.6168 82.8798C69.2441 83.0532 68.8368 83.1398 68.3948 83.1398C67.8314 83.1398 67.3331 83.0228 66.8998 82.7888C66.4664 82.5462 66.1241 82.1952 65.8728 81.7358C65.6301 81.2678 65.5088 80.7132 65.5088 80.0718V75.8468H67.3288V79.8118C67.3288 80.3838 67.4718 80.8258 67.7578 81.1378C68.0438 81.4412 68.4338 81.5928 68.9278 81.5928C69.4304 81.5928 69.8248 81.4412 70.1108 81.1378C70.3968 80.8258 70.5398 80.3838 70.5398 79.8118V75.8468H72.3728ZM83.1125 75.7428C83.9965 75.7428 84.7072 76.0158 85.2445 76.5618C85.7905 77.0992 86.0635 77.8532 86.0635 78.8238V83.0488H84.2435V79.0708C84.2435 78.5075 84.1005 78.0785 83.8145 77.7838C83.5285 77.4805 83.1385 77.3288 82.6445 77.3288C82.1505 77.3288 81.7562 77.4805 81.4615 77.7838C81.1755 78.0785 81.0325 78.5075 81.0325 79.0708V83.0488H79.2125V79.0708C79.2125 78.5075 79.0695 78.0785 78.7835 77.7838C78.4975 77.4805 78.1075 77.3288 77.6135 77.3288C77.1108 77.3288 76.7122 77.4805 76.4175 77.7838C76.1315 78.0785 75.9885 78.5075 75.9885 79.0708V83.0488H74.1685V75.8468H75.9885V76.7178C76.2225 76.4145 76.5215 76.1762 76.8855 76.0028C77.2582 75.8295 77.6655 75.7428 78.1075 75.7428C78.6708 75.7428 79.1735 75.8642 79.6155 76.1068C80.0575 76.3408 80.3998 76.6788 80.6425 77.1208C80.8765 76.7048 81.2145 76.3712 81.6565 76.1198C82.1072 75.8685 82.5925 75.7428 83.1125 75.7428ZM92.7082 73.9748V83.0488H90.8882V73.9748H92.7082ZM97.2624 83.1658C96.673 83.1658 96.1444 83.0618 95.6764 82.8538C95.2084 82.6372 94.8357 82.3468 94.5584 81.9828C94.2897 81.6188 94.1424 81.2158 94.1164 80.7738H95.9494C95.984 81.0512 96.1184 81.2808 96.3524 81.4628C96.595 81.6448 96.894 81.7358 97.2494 81.7358C97.596 81.7358 97.8647 81.6665 98.0554 81.5278C98.2547 81.3892 98.3544 81.2115 98.3544 80.9948C98.3544 80.7608 98.233 80.5875 97.9904 80.4748C97.7564 80.3535 97.3794 80.2235 96.8594 80.0848C96.322 79.9548 95.88 79.8205 95.5334 79.6818C95.1954 79.5432 94.9007 79.3308 94.6494 79.0448C94.4067 78.7588 94.2854 78.3732 94.2854 77.8878C94.2854 77.4892 94.398 77.1252 94.6234 76.7958C94.8574 76.4665 95.1867 76.2065 95.6114 76.0158C96.0447 75.8252 96.5517 75.7298 97.1324 75.7298C97.9904 75.7298 98.675 75.9465 99.1864 76.3798C99.6977 76.8045 99.9794 77.3808 100.031 78.1088H98.2894C98.2634 77.8228 98.142 77.5975 97.9254 77.4328C97.7174 77.2595 97.4357 77.1728 97.0804 77.1728C96.751 77.1728 96.4954 77.2335 96.3134 77.3548C96.14 77.4762 96.0534 77.6452 96.0534 77.8618C96.0534 78.1045 96.1747 78.2908 96.4174 78.4208C96.66 78.5422 97.037 78.6678 97.5484 78.7978C98.0684 78.9278 98.4974 79.0622 98.8354 79.2008C99.1734 79.3395 99.4637 79.5562 99.7064 79.8508C99.9577 80.1368 100.088 80.5182 100.096 80.9948C100.096 81.4108 99.9794 81.7835 99.7454 82.1128C99.52 82.4422 99.1907 82.7022 98.7574 82.8928C98.3327 83.0748 97.8344 83.1658 97.2624 83.1658ZM107.821 83.1398C107.188 83.1398 106.616 83.0315 106.105 82.8148C105.602 82.5982 105.204 82.2862 104.909 81.8788C104.614 81.4715 104.463 80.9905 104.454 80.4358H106.404C106.43 80.8085 106.56 81.1032 106.794 81.3198C107.037 81.5365 107.366 81.6448 107.782 81.6448C108.207 81.6448 108.54 81.5452 108.783 81.3458C109.026 81.1378 109.147 80.8692 109.147 80.5398C109.147 80.2712 109.065 80.0502 108.9 79.8768C108.735 79.7035 108.527 79.5692 108.276 79.4738C108.033 79.3698 107.695 79.2572 107.262 79.1358C106.673 78.9625 106.192 78.7935 105.819 78.6288C105.455 78.4555 105.139 78.1998 104.87 77.8618C104.61 77.5152 104.48 77.0558 104.48 76.4838C104.48 75.9465 104.614 75.4785 104.883 75.0798C105.152 74.6812 105.529 74.3778 106.014 74.1698C106.499 73.9532 107.054 73.8448 107.678 73.8448C108.614 73.8448 109.372 74.0745 109.953 74.5338C110.542 74.9845 110.867 75.6172 110.928 76.4318H108.926C108.909 76.1198 108.774 75.8642 108.523 75.6648C108.28 75.4568 107.955 75.3528 107.548 75.3528C107.193 75.3528 106.907 75.4438 106.69 75.6258C106.482 75.8078 106.378 76.0722 106.378 76.4188C106.378 76.6615 106.456 76.8652 106.612 77.0298C106.777 77.1858 106.976 77.3158 107.21 77.4198C107.453 77.5152 107.791 77.6278 108.224 77.7578C108.813 77.9312 109.294 78.1045 109.667 78.2778C110.04 78.4512 110.36 78.7112 110.629 79.0578C110.898 79.4045 111.032 79.8595 111.032 80.4228C111.032 80.9082 110.906 81.3588 110.655 81.7748C110.404 82.1908 110.035 82.5245 109.55 82.7758C109.065 83.0185 108.488 83.1398 107.821 83.1398ZM113.533 74.9888C113.212 74.9888 112.944 74.8892 112.727 74.6898C112.519 74.4818 112.415 74.2262 112.415 73.9228C112.415 73.6195 112.519 73.3682 112.727 73.1688C112.944 72.9608 113.212 72.8568 113.533 72.8568C113.854 72.8568 114.118 72.9608 114.326 73.1688C114.543 73.3682 114.651 73.6195 114.651 73.9228C114.651 74.2262 114.543 74.4818 114.326 74.6898C114.118 74.8892 113.854 74.9888 113.533 74.9888ZM114.43 75.8468V83.0488H112.61V75.8468H114.43ZM125.172 75.7428C126.056 75.7428 126.767 76.0158 127.304 76.5618C127.85 77.0992 128.123 77.8532 128.123 78.8238V83.0488H126.303V79.0708C126.303 78.5075 126.16 78.0785 125.874 77.7838C125.588 77.4805 125.198 77.3288 124.704 77.3288C124.21 77.3288 123.816 77.4805 123.521 77.7838C123.235 78.0785 123.092 78.5075 123.092 79.0708V83.0488H121.272V79.0708C121.272 78.5075 121.129 78.0785 120.843 77.7838C120.557 77.4805 120.167 77.3288 119.673 77.3288C119.17 77.3288 118.772 77.4805 118.477 77.7838C118.191 78.0785 118.048 78.5075 118.048 79.0708V83.0488H116.228V75.8468H118.048V76.7178C118.282 76.4145 118.581 76.1762 118.945 76.0028C119.318 75.8295 119.725 75.7428 120.167 75.7428C120.73 75.7428 121.233 75.8642 121.675 76.1068C122.117 76.3408 122.459 76.6788 122.702 77.1208C122.936 76.7048 123.274 76.3712 123.716 76.1198C124.167 75.8685 124.652 75.7428 125.172 75.7428ZM131.67 76.8868C131.904 76.5575 132.225 76.2845 132.632 76.0678C133.048 75.8425 133.52 75.7298 134.049 75.7298C134.664 75.7298 135.219 75.8815 135.713 76.1848C136.216 76.4882 136.61 76.9215 136.896 77.4848C137.191 78.0395 137.338 78.6852 137.338 79.4218C137.338 80.1585 137.191 80.8128 136.896 81.3848C136.61 81.9482 136.216 82.3858 135.713 82.6978C135.219 83.0098 134.664 83.1658 134.049 83.1658C133.52 83.1658 133.052 83.0575 132.645 82.8408C132.246 82.6242 131.921 82.3512 131.67 82.0218V86.4808H129.85V75.8468H131.67V76.8868ZM135.479 79.4218C135.479 78.9885 135.388 78.6158 135.206 78.3038C135.033 77.9832 134.799 77.7405 134.504 77.5758C134.218 77.4112 133.906 77.3288 133.568 77.3288C133.239 77.3288 132.927 77.4155 132.632 77.5888C132.346 77.7535 132.112 77.9962 131.93 78.3168C131.757 78.6375 131.67 79.0145 131.67 79.4478C131.67 79.8812 131.757 80.2582 131.93 80.5788C132.112 80.8995 132.346 81.1465 132.632 81.3198C132.927 81.4845 133.239 81.5668 133.568 81.5668C133.906 81.5668 134.218 81.4802 134.504 81.3068C134.799 81.1335 135.033 80.8865 135.206 80.5658C135.388 80.2452 135.479 79.8638 135.479 79.4218ZM140.481 73.4288V83.0488H138.661V73.4288H140.481ZM149.169 75.8468L144.71 86.4548H142.773L144.333 82.8668L141.447 75.8468H143.488L145.347 80.8778L147.232 75.8468H149.169ZM156.42 73.9748C157.373 73.9748 158.209 74.1612 158.929 74.5338C159.657 74.9065 160.216 75.4395 160.606 76.1328C161.004 76.8175 161.204 77.6148 161.204 78.5248C161.204 79.4348 161.004 80.2322 160.606 80.9168C160.216 81.5928 159.657 82.1172 158.929 82.4898C158.209 82.8625 157.373 83.0488 156.42 83.0488H153.248V73.9748H156.42ZM156.355 81.5018C157.308 81.5018 158.045 81.2418 158.565 80.7218C159.085 80.2018 159.345 79.4695 159.345 78.5248C159.345 77.5802 159.085 76.8435 158.565 76.3148C158.045 75.7775 157.308 75.5088 156.355 75.5088H155.068V81.5018H156.355ZM169.365 75.8468V83.0488H167.532V82.1388C167.298 82.4508 166.99 82.6978 166.609 82.8798C166.236 83.0532 165.829 83.1398 165.387 83.1398C164.824 83.1398 164.325 83.0228 163.892 82.7888C163.459 82.5462 163.116 82.1952 162.865 81.7358C162.622 81.2678 162.501 80.7132 162.501 80.0718V75.8468H164.321V79.8118C164.321 80.3838 164.464 80.8258 164.75 81.1378C165.036 81.4412 165.426 81.5928 165.92 81.5928C166.423 81.5928 166.817 81.4412 167.103 81.1378C167.389 80.8258 167.532 80.3838 167.532 79.8118V75.8468H169.365ZM180.105 75.7428C180.989 75.7428 181.699 76.0158 182.237 76.5618C182.783 77.0992 183.056 77.8532 183.056 78.8238V83.0488H181.236V79.0708C181.236 78.5075 181.093 78.0785 180.807 77.7838C180.521 77.4805 180.131 77.3288 179.637 77.3288C179.143 77.3288 178.748 77.4805 178.454 77.7838C178.168 78.0785 178.025 78.5075 178.025 79.0708V83.0488H176.205V79.0708C176.205 78.5075 176.062 78.0785 175.776 77.7838C175.49 77.4805 175.1 77.3288 174.606 77.3288C174.103 77.3288 173.704 77.4805 173.41 77.7838C173.124 78.0785 172.981 78.5075 172.981 79.0708V83.0488H171.161V75.8468H172.981V76.7178C173.215 76.4145 173.514 76.1762 173.878 76.0028C174.25 75.8295 174.658 75.7428 175.1 75.7428C175.663 75.7428 176.166 75.8642 176.608 76.1068C177.05 76.3408 177.392 76.6788 177.635 77.1208C177.869 76.7048 178.207 76.3712 178.649 76.1198C179.099 75.8685 179.585 75.7428 180.105 75.7428ZM193.727 75.7428C194.611 75.7428 195.321 76.0158 195.859 76.5618C196.405 77.0992 196.678 77.8532 196.678 78.8238V83.0488H194.858V79.0708C194.858 78.5075 194.715 78.0785 194.429 77.7838C194.143 77.4805 193.753 77.3288 193.259 77.3288C192.765 77.3288 192.37 77.4805 192.076 77.7838C191.79 78.0785 191.647 78.5075 191.647 79.0708V83.0488H189.827V79.0708C189.827 78.5075 189.684 78.0785 189.398 77.7838C189.112 77.4805 188.722 77.3288 188.228 77.3288C187.725 77.3288 187.326 77.4805 187.032 77.7838C186.746 78.0785 186.603 78.5075 186.603 79.0708V83.0488H184.783V75.8468H186.603V76.7178C186.837 76.4145 187.136 76.1762 187.5 76.0028C187.872 75.8295 188.28 75.7428 188.722 75.7428C189.285 75.7428 189.788 75.8642 190.23 76.1068C190.672 76.3408 191.014 76.6788 191.257 77.1208C191.491 76.7048 191.829 76.3712 192.271 76.1198C192.721 75.8685 193.207 75.7428 193.727 75.7428ZM205.295 75.8468L200.836 86.4548H198.899L200.459 82.8668L197.573 75.8468H199.614L201.473 80.8778L203.358 75.8468H205.295Z" fill="#01070D"/>
<path opacity="0.6" d="M3.6252 178.316H6.6152V179.759H1.8052V170.685H3.6252V178.316ZM10.97 179.876C10.2767 179.876 9.65267 179.725 9.098 179.421C8.54333 179.109 8.10567 178.672 7.785 178.108C7.473 177.545 7.317 176.895 7.317 176.158C7.317 175.422 7.47733 174.772 7.798 174.208C8.12733 173.645 8.57367 173.212 9.137 172.908C9.70033 172.596 10.3287 172.44 11.022 172.44C11.7153 172.44 12.3437 172.596 12.907 172.908C13.4703 173.212 13.9123 173.645 14.233 174.208C14.5623 174.772 14.727 175.422 14.727 176.158C14.727 176.895 14.558 177.545 14.22 178.108C13.8907 178.672 13.44 179.109 12.868 179.421C12.3047 179.725 11.672 179.876 10.97 179.876ZM10.97 178.29C11.2993 178.29 11.607 178.212 11.893 178.056C12.1877 177.892 12.4217 177.649 12.595 177.328C12.7683 177.008 12.855 176.618 12.855 176.158C12.855 175.474 12.673 174.949 12.309 174.585C11.9537 174.213 11.516 174.026 10.996 174.026C10.476 174.026 10.0383 174.213 9.683 174.585C9.33633 174.949 9.163 175.474 9.163 176.158C9.163 176.843 9.332 177.372 9.67 177.744C10.0167 178.108 10.45 178.29 10.97 178.29ZM17.882 173.675C18.116 173.294 18.4194 172.995 18.792 172.778C19.1734 172.562 19.6067 172.453 20.092 172.453V174.364H19.611C19.039 174.364 18.6057 174.499 18.311 174.767C18.025 175.036 17.882 175.504 17.882 176.171V179.759H16.062V172.557H17.882V173.675ZM28.0129 176.002C28.0129 176.262 27.9956 176.496 27.9609 176.704H22.6959C22.7392 177.224 22.9212 177.632 23.2419 177.926C23.5626 178.221 23.9569 178.368 24.4249 178.368C25.1009 178.368 25.5819 178.078 25.8679 177.497H27.8309C27.6229 178.191 27.2242 178.763 26.6349 179.213C26.0456 179.655 25.3219 179.876 24.4639 179.876C23.7706 179.876 23.1466 179.725 22.5919 179.421C22.0459 179.109 21.6169 178.672 21.3049 178.108C21.0016 177.545 20.8499 176.895 20.8499 176.158C20.8499 175.413 21.0016 174.759 21.3049 174.195C21.6082 173.632 22.0329 173.199 22.5789 172.895C23.1249 172.592 23.7532 172.44 24.4639 172.44C25.1486 172.44 25.7596 172.588 26.2969 172.882C26.8429 173.177 27.2632 173.597 27.5579 174.143C27.8612 174.681 28.0129 175.3 28.0129 176.002ZM26.1279 175.482C26.1192 175.014 25.9502 174.642 25.6209 174.364C25.2916 174.078 24.8886 173.935 24.4119 173.935C23.9612 173.935 23.5799 174.074 23.2679 174.351C22.9646 174.62 22.7782 174.997 22.7089 175.482H26.1279ZM38.2853 172.453C39.1693 172.453 39.88 172.726 40.4173 173.272C40.9633 173.81 41.2363 174.564 41.2363 175.534V179.759H39.4163V175.781C39.4163 175.218 39.2733 174.789 38.9873 174.494C38.7013 174.191 38.3113 174.039 37.8173 174.039C37.3233 174.039 36.929 174.191 36.6343 174.494C36.3483 174.789 36.2053 175.218 36.2053 175.781V179.759H34.3853V175.781C34.3853 175.218 34.2423 174.789 33.9563 174.494C33.6703 174.191 33.2803 174.039 32.7863 174.039C32.2837 174.039 31.885 174.191 31.5903 174.494C31.3043 174.789 31.1613 175.218 31.1613 175.781V179.759H29.3413V172.557H31.1613V173.428C31.3953 173.125 31.6943 172.887 32.0583 172.713C32.431 172.54 32.8383 172.453 33.2803 172.453C33.8437 172.453 34.3463 172.575 34.7883 172.817C35.2303 173.051 35.5727 173.389 35.8153 173.831C36.0493 173.415 36.3873 173.082 36.8293 172.83C37.28 172.579 37.7653 172.453 38.2853 172.453ZM47.8811 170.685V179.759H46.0611V170.685H47.8811ZM51.4992 173.597C51.7332 173.268 52.0539 172.995 52.4612 172.778C52.8772 172.553 53.3496 172.44 53.8782 172.44C54.4936 172.44 55.0482 172.592 55.5422 172.895C56.0449 173.199 56.4392 173.632 56.7252 174.195C57.0199 174.75 57.1672 175.396 57.1672 176.132C57.1672 176.869 57.0199 177.523 56.7252 178.095C56.4392 178.659 56.0449 179.096 55.5422 179.408C55.0482 179.72 54.4936 179.876 53.8782 179.876C53.3496 179.876 52.8816 179.768 52.4742 179.551C52.0756 179.335 51.7506 179.062 51.4992 178.732V183.191H49.6792V172.557H51.4992V173.597ZM55.3082 176.132C55.3082 175.699 55.2172 175.326 55.0352 175.014C54.8619 174.694 54.6279 174.451 54.3332 174.286C54.0472 174.122 53.7352 174.039 53.3972 174.039C53.0679 174.039 52.7559 174.126 52.4612 174.299C52.1752 174.464 51.9412 174.707 51.7592 175.027C51.5859 175.348 51.4992 175.725 51.4992 176.158C51.4992 176.592 51.5859 176.969 51.7592 177.289C51.9412 177.61 52.1752 177.857 52.4612 178.03C52.7559 178.195 53.0679 178.277 53.3972 178.277C53.7352 178.277 54.0472 178.191 54.3332 178.017C54.6279 177.844 54.8619 177.597 55.0352 177.276C55.2172 176.956 55.3082 176.574 55.3082 176.132ZM61.2458 179.876C60.6564 179.876 60.1278 179.772 59.6598 179.564C59.1918 179.348 58.8191 179.057 58.5418 178.693C58.2731 178.329 58.1258 177.926 58.0998 177.484H59.9328C59.9674 177.762 60.1018 177.991 60.3358 178.173C60.5784 178.355 60.8774 178.446 61.2328 178.446C61.5794 178.446 61.8481 178.377 62.0388 178.238C62.2381 178.1 62.3378 177.922 62.3378 177.705C62.3378 177.471 62.2164 177.298 61.9738 177.185C61.7398 177.064 61.3628 176.934 60.8428 176.795C60.3054 176.665 59.8634 176.531 59.5168 176.392C59.1788 176.254 58.8841 176.041 58.6328 175.755C58.3901 175.469 58.2688 175.084 58.2688 174.598C58.2688 174.2 58.3814 173.836 58.6068 173.506C58.8408 173.177 59.1701 172.917 59.5948 172.726C60.0281 172.536 60.5351 172.44 61.1158 172.44C61.9738 172.44 62.6584 172.657 63.1698 173.09C63.6811 173.515 63.9628 174.091 64.0148 174.819H62.2728C62.2468 174.533 62.1254 174.308 61.9088 174.143C61.7008 173.97 61.4191 173.883 61.0638 173.883C60.7344 173.883 60.4788 173.944 60.2968 174.065C60.1234 174.187 60.0368 174.356 60.0368 174.572C60.0368 174.815 60.1581 175.001 60.4008 175.131C60.6434 175.253 61.0204 175.378 61.5318 175.508C62.0518 175.638 62.4808 175.773 62.8188 175.911C63.1568 176.05 63.4471 176.267 63.6898 176.561C63.9411 176.847 64.0711 177.229 64.0798 177.705C64.0798 178.121 63.9628 178.494 63.7288 178.823C63.5034 179.153 63.1741 179.413 62.7408 179.603C62.3161 179.785 61.8178 179.876 61.2458 179.876ZM72.3728 172.557V179.759H70.5398V178.849C70.3058 179.161 69.9981 179.408 69.6168 179.59C69.2441 179.764 68.8368 179.85 68.3948 179.85C67.8314 179.85 67.3331 179.733 66.8998 179.499C66.4664 179.257 66.1241 178.906 65.8728 178.446C65.6301 177.978 65.5088 177.424 65.5088 176.782V172.557H67.3288V176.522C67.3288 177.094 67.4718 177.536 67.7578 177.848C68.0438 178.152 68.4338 178.303 68.9278 178.303C69.4304 178.303 69.8248 178.152 70.1108 177.848C70.3968 177.536 70.5398 177.094 70.5398 176.522V172.557H72.3728ZM83.1125 172.453C83.9965 172.453 84.7072 172.726 85.2445 173.272C85.7905 173.81 86.0635 174.564 86.0635 175.534V179.759H84.2435V175.781C84.2435 175.218 84.1005 174.789 83.8145 174.494C83.5285 174.191 83.1385 174.039 82.6445 174.039C82.1505 174.039 81.7562 174.191 81.4615 174.494C81.1755 174.789 81.0325 175.218 81.0325 175.781V179.759H79.2125V175.781C79.2125 175.218 79.0695 174.789 78.7835 174.494C78.4975 174.191 78.1075 174.039 77.6135 174.039C77.1108 174.039 76.7122 174.191 76.4175 174.494C76.1315 174.789 75.9885 175.218 75.9885 175.781V179.759H74.1685V172.557H75.9885V173.428C76.2225 173.125 76.5215 172.887 76.8855 172.713C77.2582 172.54 77.6655 172.453 78.1075 172.453C78.6708 172.453 79.1735 172.575 79.6155 172.817C80.0575 173.051 80.3998 173.389 80.6425 173.831C80.8765 173.415 81.2145 173.082 81.6565 172.83C82.1072 172.579 82.5925 172.453 83.1125 172.453ZM92.7082 170.685V179.759H90.8882V170.685H92.7082ZM97.2624 179.876C96.673 179.876 96.1444 179.772 95.6764 179.564C95.2084 179.348 94.8357 179.057 94.5584 178.693C94.2897 178.329 94.1424 177.926 94.1164 177.484H95.9494C95.984 177.762 96.1184 177.991 96.3524 178.173C96.595 178.355 96.894 178.446 97.2494 178.446C97.596 178.446 97.8647 178.377 98.0554 178.238C98.2547 178.1 98.3544 177.922 98.3544 177.705C98.3544 177.471 98.233 177.298 97.9904 177.185C97.7564 177.064 97.3794 176.934 96.8594 176.795C96.322 176.665 95.88 176.531 95.5334 176.392C95.1954 176.254 94.9007 176.041 94.6494 175.755C94.4067 175.469 94.2854 175.084 94.2854 174.598C94.2854 174.2 94.398 173.836 94.6234 173.506C94.8574 173.177 95.1867 172.917 95.6114 172.726C96.0447 172.536 96.5517 172.44 97.1324 172.44C97.9904 172.44 98.675 172.657 99.1864 173.09C99.6977 173.515 99.9794 174.091 100.031 174.819H98.2894C98.2634 174.533 98.142 174.308 97.9254 174.143C97.7174 173.97 97.4357 173.883 97.0804 173.883C96.751 173.883 96.4954 173.944 96.3134 174.065C96.14 174.187 96.0534 174.356 96.0534 174.572C96.0534 174.815 96.1747 175.001 96.4174 175.131C96.66 175.253 97.037 175.378 97.5484 175.508C98.0684 175.638 98.4974 175.773 98.8354 175.911C99.1734 176.05 99.4637 176.267 99.7064 176.561C99.9577 176.847 100.088 177.229 100.096 177.705C100.096 178.121 99.9794 178.494 99.7454 178.823C99.52 179.153 99.1907 179.413 98.7574 179.603C98.3327 179.785 97.8344 179.876 97.2624 179.876ZM107.821 179.85C107.188 179.85 106.616 179.742 106.105 179.525C105.602 179.309 105.204 178.997 104.909 178.589C104.614 178.182 104.463 177.701 104.454 177.146H106.404C106.43 177.519 106.56 177.814 106.794 178.03C107.037 178.247 107.366 178.355 107.782 178.355C108.207 178.355 108.54 178.256 108.783 178.056C109.026 177.848 109.147 177.58 109.147 177.25C109.147 176.982 109.065 176.761 108.9 176.587C108.735 176.414 108.527 176.28 108.276 176.184C108.033 176.08 107.695 175.968 107.262 175.846C106.673 175.673 106.192 175.504 105.819 175.339C105.455 175.166 105.139 174.91 104.87 174.572C104.61 174.226 104.48 173.766 104.48 173.194C104.48 172.657 104.614 172.189 104.883 171.79C105.152 171.392 105.529 171.088 106.014 170.88C106.499 170.664 107.054 170.555 107.678 170.555C108.614 170.555 109.372 170.785 109.953 171.244C110.542 171.695 110.867 172.328 110.928 173.142H108.926C108.909 172.83 108.774 172.575 108.523 172.375C108.28 172.167 107.955 172.063 107.548 172.063C107.193 172.063 106.907 172.154 106.69 172.336C106.482 172.518 106.378 172.783 106.378 173.129C106.378 173.372 106.456 173.576 106.612 173.74C106.777 173.896 106.976 174.026 107.21 174.13C107.453 174.226 107.791 174.338 108.224 174.468C108.813 174.642 109.294 174.815 109.667 174.988C110.04 175.162 110.36 175.422 110.629 175.768C110.898 176.115 111.032 176.57 111.032 177.133C111.032 177.619 110.906 178.069 110.655 178.485C110.404 178.901 110.035 179.235 109.55 179.486C109.065 179.729 108.488 179.85 107.821 179.85ZM113.533 171.699C113.212 171.699 112.944 171.6 112.727 171.4C112.519 171.192 112.415 170.937 112.415 170.633C112.415 170.33 112.519 170.079 112.727 169.879C112.944 169.671 113.212 169.567 113.533 169.567C113.854 169.567 114.118 169.671 114.326 169.879C114.543 170.079 114.651 170.33 114.651 170.633C114.651 170.937 114.543 171.192 114.326 171.4C114.118 171.6 113.854 171.699 113.533 171.699ZM114.43 172.557V179.759H112.61V172.557H114.43ZM125.172 172.453C126.056 172.453 126.767 172.726 127.304 173.272C127.85 173.81 128.123 174.564 128.123 175.534V179.759H126.303V175.781C126.303 175.218 126.16 174.789 125.874 174.494C125.588 174.191 125.198 174.039 124.704 174.039C124.21 174.039 123.816 174.191 123.521 174.494C123.235 174.789 123.092 175.218 123.092 175.781V179.759H121.272V175.781C121.272 175.218 121.129 174.789 120.843 174.494C120.557 174.191 120.167 174.039 119.673 174.039C119.17 174.039 118.772 174.191 118.477 174.494C118.191 174.789 118.048 175.218 118.048 175.781V179.759H116.228V172.557H118.048V173.428C118.282 173.125 118.581 172.887 118.945 172.713C119.318 172.54 119.725 172.453 120.167 172.453C120.73 172.453 121.233 172.575 121.675 172.817C122.117 173.051 122.459 173.389 122.702 173.831C122.936 173.415 123.274 173.082 123.716 172.83C124.167 172.579 124.652 172.453 125.172 172.453ZM131.67 173.597C131.904 173.268 132.225 172.995 132.632 172.778C133.048 172.553 133.52 172.44 134.049 172.44C134.664 172.44 135.219 172.592 135.713 172.895C136.216 173.199 136.61 173.632 136.896 174.195C137.191 174.75 137.338 175.396 137.338 176.132C137.338 176.869 137.191 177.523 136.896 178.095C136.61 178.659 136.216 179.096 135.713 179.408C135.219 179.72 134.664 179.876 134.049 179.876C133.52 179.876 133.052 179.768 132.645 179.551C132.246 179.335 131.921 179.062 131.67 178.732V183.191H129.85V172.557H131.67V173.597ZM135.479 176.132C135.479 175.699 135.388 175.326 135.206 175.014C135.033 174.694 134.799 174.451 134.504 174.286C134.218 174.122 133.906 174.039 133.568 174.039C133.239 174.039 132.927 174.126 132.632 174.299C132.346 174.464 132.112 174.707 131.93 175.027C131.757 175.348 131.67 175.725 131.67 176.158C131.67 176.592 131.757 176.969 131.93 177.289C132.112 177.61 132.346 177.857 132.632 178.03C132.927 178.195 133.239 178.277 133.568 178.277C133.906 178.277 134.218 178.191 134.504 178.017C134.799 177.844 135.033 177.597 135.206 177.276C135.388 176.956 135.479 176.574 135.479 176.132ZM140.481 170.139V179.759H138.661V170.139H140.481ZM149.169 172.557L144.71 183.165H142.773L144.333 179.577L141.447 172.557H143.488L145.347 177.588L147.232 172.557H149.169ZM150.956 179.85C150.627 179.85 150.354 179.751 150.137 179.551C149.929 179.343 149.825 179.088 149.825 178.784C149.825 178.481 149.929 178.23 150.137 178.03C150.354 177.822 150.627 177.718 150.956 177.718C151.277 177.718 151.541 177.822 151.749 178.03C151.957 178.23 152.061 178.481 152.061 178.784C152.061 179.088 151.957 179.343 151.749 179.551C151.541 179.751 151.277 179.85 150.956 179.85Z" fill="#01070D"/>
<path opacity="0.6" d="M302.459 73.9748V75.4438H300.041V83.0488H298.221V75.4438H295.803V73.9748H302.459ZM306.985 83.1658C306.291 83.1658 305.667 83.0142 305.113 82.7108C304.558 82.3988 304.12 81.9612 303.8 81.3978C303.488 80.8345 303.332 80.1845 303.332 79.4478C303.332 78.7112 303.492 78.0612 303.813 77.4978C304.142 76.9345 304.588 76.5012 305.152 76.1978C305.715 75.8858 306.343 75.7298 307.037 75.7298C307.73 75.7298 308.358 75.8858 308.922 76.1978C309.485 76.5012 309.927 76.9345 310.248 77.4978C310.577 78.0612 310.742 78.7112 310.742 79.4478C310.742 80.1845 310.573 80.8345 310.235 81.3978C309.905 81.9612 309.455 82.3988 308.883 82.7108C308.319 83.0142 307.687 83.1658 306.985 83.1658ZM306.985 81.5798C307.314 81.5798 307.622 81.5018 307.908 81.3458C308.202 81.1812 308.436 80.9385 308.61 80.6178C308.783 80.2972 308.87 79.9072 308.87 79.4478C308.87 78.7632 308.688 78.2388 308.324 77.8748C307.968 77.5022 307.531 77.3158 307.011 77.3158C306.491 77.3158 306.053 77.5022 305.698 77.8748C305.351 78.2388 305.178 78.7632 305.178 79.4478C305.178 80.1325 305.347 80.6612 305.685 81.0338C306.031 81.3978 306.465 81.5798 306.985 81.5798ZM314.196 77.3418V80.8258C314.196 81.0685 314.252 81.2462 314.365 81.3588C314.486 81.4628 314.685 81.5148 314.963 81.5148H315.808V83.0488H314.664C313.13 83.0488 312.363 82.3035 312.363 80.8128V77.3418H311.505V75.8468H312.363V74.0658H314.196V75.8468H315.808V77.3418H314.196ZM316.649 79.4218C316.649 78.6938 316.792 78.0482 317.078 77.4848C317.372 76.9215 317.767 76.4882 318.261 76.1848C318.763 75.8815 319.322 75.7298 319.938 75.7298C320.475 75.7298 320.943 75.8382 321.342 76.0548C321.749 76.2715 322.074 76.5445 322.317 76.8738V75.8468H324.15V83.0488H322.317V81.9958C322.083 82.3338 321.758 82.6155 321.342 82.8408C320.934 83.0575 320.462 83.1658 319.925 83.1658C319.318 83.1658 318.763 83.0098 318.261 82.6978C317.767 82.3858 317.372 81.9482 317.078 81.3848C316.792 80.8128 316.649 80.1585 316.649 79.4218ZM322.317 79.4478C322.317 79.0058 322.23 78.6288 322.057 78.3168C321.883 77.9962 321.649 77.7535 321.355 77.5888C321.06 77.4155 320.744 77.3288 320.406 77.3288C320.068 77.3288 319.756 77.4112 319.47 77.5758C319.184 77.7405 318.95 77.9832 318.768 78.3038C318.594 78.6158 318.508 78.9885 318.508 79.4218C318.508 79.8552 318.594 80.2365 318.768 80.5658C318.95 80.8865 319.184 81.1335 319.47 81.3068C319.764 81.4802 320.076 81.5668 320.406 81.5668C320.744 81.5668 321.06 81.4845 321.355 81.3198C321.649 81.1465 321.883 80.9038 322.057 80.5918C322.23 80.2712 322.317 79.8898 322.317 79.4478ZM327.747 73.4288V83.0488H325.927V73.4288H327.747ZM337.791 78.3948C338.302 78.4902 338.723 78.7458 339.052 79.1618C339.381 79.5778 339.546 80.0545 339.546 80.5918C339.546 81.0772 339.425 81.5062 339.182 81.8788C338.948 82.2428 338.606 82.5288 338.155 82.7368C337.704 82.9448 337.171 83.0488 336.556 83.0488H332.643V73.9748H336.387C337.002 73.9748 337.531 74.0745 337.973 74.2738C338.424 74.4732 338.762 74.7505 338.987 75.1058C339.221 75.4612 339.338 75.8642 339.338 76.3148C339.338 76.8435 339.195 77.2855 338.909 77.6408C338.632 77.9962 338.259 78.2475 337.791 78.3948ZM334.463 77.7188H336.127C336.56 77.7188 336.894 77.6235 337.128 77.4328C337.362 77.2335 337.479 76.9518 337.479 76.5878C337.479 76.2238 337.362 75.9422 337.128 75.7428C336.894 75.5435 336.56 75.4438 336.127 75.4438H334.463V77.7188ZM336.296 81.5668C336.738 81.5668 337.08 81.4628 337.323 81.2548C337.574 81.0468 337.7 80.7522 337.7 80.3708C337.7 79.9808 337.57 79.6775 337.31 79.4608C337.05 79.2355 336.699 79.1228 336.257 79.1228H334.463V81.5668H336.296ZM340.529 79.4218C340.529 78.6938 340.672 78.0482 340.958 77.4848C341.252 76.9215 341.647 76.4882 342.141 76.1848C342.643 75.8815 343.202 75.7298 343.818 75.7298C344.355 75.7298 344.823 75.8382 345.222 76.0548C345.629 76.2715 345.954 76.5445 346.197 76.8738V75.8468H348.03V83.0488H346.197V81.9958C345.963 82.3338 345.638 82.6155 345.222 82.8408C344.814 83.0575 344.342 83.1658 343.805 83.1658C343.198 83.1658 342.643 83.0098 342.141 82.6978C341.647 82.3858 341.252 81.9482 340.958 81.3848C340.672 80.8128 340.529 80.1585 340.529 79.4218ZM346.197 79.4478C346.197 79.0058 346.11 78.6288 345.937 78.3168C345.763 77.9962 345.529 77.7535 345.235 77.5888C344.94 77.4155 344.624 77.3288 344.286 77.3288C343.948 77.3288 343.636 77.4112 343.35 77.5758C343.064 77.7405 342.83 77.9832 342.648 78.3038C342.474 78.6158 342.388 78.9885 342.388 79.4218C342.388 79.8552 342.474 80.2365 342.648 80.5658C342.83 80.8865 343.064 81.1335 343.35 81.3068C343.644 81.4802 343.956 81.5668 344.286 81.5668C344.624 81.5668 344.94 81.4845 345.235 81.3198C345.529 81.1465 345.763 80.9038 345.937 80.5918C346.11 80.2712 346.197 79.8898 346.197 79.4478ZM351.627 73.4288V83.0488H349.807V73.4288H351.627ZM352.957 79.4218C352.957 78.6938 353.1 78.0482 353.386 77.4848C353.681 76.9215 354.075 76.4882 354.569 76.1848C355.072 75.8815 355.631 75.7298 356.246 75.7298C356.784 75.7298 357.252 75.8382 357.65 76.0548C358.058 76.2715 358.383 76.5445 358.625 76.8738V75.8468H360.458V83.0488H358.625V81.9958C358.391 82.3338 358.066 82.6155 357.65 82.8408C357.243 83.0575 356.771 83.1658 356.233 83.1658C355.627 83.1658 355.072 83.0098 354.569 82.6978C354.075 82.3858 353.681 81.9482 353.386 81.3848C353.1 80.8128 352.957 80.1585 352.957 79.4218ZM358.625 79.4478C358.625 79.0058 358.539 78.6288 358.365 78.3168C358.192 77.9962 357.958 77.7535 357.663 77.5888C357.369 77.4155 357.052 77.3288 356.714 77.3288C356.376 77.3288 356.064 77.4112 355.778 77.5758C355.492 77.7405 355.258 77.9832 355.076 78.3038C354.903 78.6158 354.816 78.9885 354.816 79.4218C354.816 79.8552 354.903 80.2365 355.076 80.5658C355.258 80.8865 355.492 81.1335 355.778 81.3068C356.073 81.4802 356.385 81.5668 356.714 81.5668C357.052 81.5668 357.369 81.4845 357.663 81.3198C357.958 81.1465 358.192 80.9038 358.365 80.5918C358.539 80.2712 358.625 79.8898 358.625 79.4478ZM366.227 75.7428C367.085 75.7428 367.778 76.0158 368.307 76.5618C368.836 77.0992 369.1 77.8532 369.1 78.8238V83.0488H367.28V79.0708C367.28 78.4988 367.137 78.0612 366.851 77.7578C366.565 77.4458 366.175 77.2898 365.681 77.2898C365.178 77.2898 364.78 77.4458 364.485 77.7578C364.199 78.0612 364.056 78.4988 364.056 79.0708V83.0488H362.236V75.8468H364.056V76.7438C364.299 76.4318 364.606 76.1892 364.979 76.0158C365.36 75.8338 365.776 75.7428 366.227 75.7428ZM370.363 79.4478C370.363 78.7025 370.514 78.0525 370.818 77.4978C371.121 76.9345 371.541 76.5012 372.079 76.1978C372.616 75.8858 373.231 75.7298 373.925 75.7298C374.817 75.7298 375.554 75.9552 376.135 76.4058C376.724 76.8478 377.118 77.4718 377.318 78.2778H375.355C375.251 77.9658 375.073 77.7232 374.822 77.5498C374.579 77.3678 374.276 77.2768 373.912 77.2768C373.392 77.2768 372.98 77.4675 372.677 77.8488C372.373 78.2215 372.222 78.7545 372.222 79.4478C372.222 80.1325 372.373 80.6655 372.677 81.0468C372.98 81.4195 373.392 81.6058 373.912 81.6058C374.648 81.6058 375.129 81.2765 375.355 80.6178H377.318C377.118 81.3978 376.724 82.0175 376.135 82.4768C375.545 82.9362 374.809 83.1658 373.925 83.1658C373.231 83.1658 372.616 83.0142 372.079 82.7108C371.541 82.3988 371.121 81.9655 370.818 81.4108C370.514 80.8475 370.363 80.1932 370.363 79.4478ZM385.346 79.2918C385.346 79.5518 385.329 79.7858 385.294 79.9938H380.029C380.072 80.5138 380.254 80.9212 380.575 81.2158C380.896 81.5105 381.29 81.6578 381.758 81.6578C382.434 81.6578 382.915 81.3675 383.201 80.7868H385.164C384.956 81.4802 384.557 82.0522 383.968 82.5028C383.379 82.9448 382.655 83.1658 381.797 83.1658C381.104 83.1658 380.48 83.0142 379.925 82.7108C379.379 82.3988 378.95 81.9612 378.638 81.3978C378.335 80.8345 378.183 80.1845 378.183 79.4478C378.183 78.7025 378.335 78.0482 378.638 77.4848C378.941 76.9215 379.366 76.4882 379.912 76.1848C380.458 75.8815 381.086 75.7298 381.797 75.7298C382.482 75.7298 383.093 75.8772 383.63 76.1718C384.176 76.4665 384.596 76.8868 384.891 77.4328C385.194 77.9702 385.346 78.5898 385.346 79.2918ZM383.461 78.7718C383.452 78.3038 383.283 77.9312 382.954 77.6538C382.625 77.3678 382.222 77.2248 381.745 77.2248C381.294 77.2248 380.913 77.3635 380.601 77.6408C380.298 77.9095 380.111 78.2865 380.042 78.7718H383.461ZM395.947 73.9748V75.4438H393.529V83.0488H391.709V75.4438H389.291V73.9748H395.947ZM400.473 83.1658C399.78 83.1658 399.156 83.0142 398.601 82.7108C398.046 82.3988 397.609 81.9612 397.288 81.3978C396.976 80.8345 396.82 80.1845 396.82 79.4478C396.82 78.7112 396.98 78.0612 397.301 77.4978C397.63 76.9345 398.077 76.5012 398.64 76.1978C399.203 75.8858 399.832 75.7298 400.525 75.7298C401.218 75.7298 401.847 75.8858 402.41 76.1978C402.973 76.5012 403.415 76.9345 403.736 77.4978C404.065 78.0612 404.23 78.7112 404.23 79.4478C404.23 80.1845 404.061 80.8345 403.723 81.3978C403.394 81.9612 402.943 82.3988 402.371 82.7108C401.808 83.0142 401.175 83.1658 400.473 83.1658ZM400.473 81.5798C400.802 81.5798 401.11 81.5018 401.396 81.3458C401.691 81.1812 401.925 80.9385 402.098 80.6178C402.271 80.2972 402.358 79.9072 402.358 79.4478C402.358 78.7632 402.176 78.2388 401.812 77.8748C401.457 77.5022 401.019 77.3158 400.499 77.3158C399.979 77.3158 399.541 77.5022 399.186 77.8748C398.839 78.2388 398.666 78.7632 398.666 79.4478C398.666 80.1325 398.835 80.6612 399.173 81.0338C399.52 81.3978 399.953 81.5798 400.473 81.5798ZM415.28 76.7828C415.28 77.2682 415.163 77.7232 414.929 78.1478C414.703 78.5725 414.344 78.9148 413.85 79.1748C413.364 79.4348 412.749 79.5648 412.004 79.5648H410.483V83.0488H408.663V73.9748H412.004C412.706 73.9748 413.304 74.0962 413.798 74.3388C414.292 74.5815 414.66 74.9152 414.903 75.3398C415.154 75.7645 415.28 76.2455 415.28 76.7828ZM411.926 78.0958C412.428 78.0958 412.801 77.9832 413.044 77.7578C413.286 77.5238 413.408 77.1988 413.408 76.7828C413.408 75.8988 412.914 75.4568 411.926 75.4568H410.483V78.0958H411.926ZM416.104 79.4218C416.104 78.6938 416.247 78.0482 416.533 77.4848C416.827 76.9215 417.222 76.4882 417.716 76.1848C418.218 75.8815 418.777 75.7298 419.393 75.7298C419.93 75.7298 420.398 75.8382 420.797 76.0548C421.204 76.2715 421.529 76.5445 421.772 76.8738V75.8468H423.605V83.0488H421.772V81.9958C421.538 82.3338 421.213 82.6155 420.797 82.8408C420.389 83.0575 419.917 83.1658 419.38 83.1658C418.773 83.1658 418.218 83.0098 417.716 82.6978C417.222 82.3858 416.827 81.9482 416.533 81.3848C416.247 80.8128 416.104 80.1585 416.104 79.4218ZM421.772 79.4478C421.772 79.0058 421.685 78.6288 421.512 78.3168C421.338 77.9962 421.104 77.7535 420.81 77.5888C420.515 77.4155 420.199 77.3288 419.861 77.3288C419.523 77.3288 419.211 77.4112 418.925 77.5758C418.639 77.7405 418.405 77.9832 418.223 78.3038C418.049 78.6158 417.963 78.9885 417.963 79.4218C417.963 79.8552 418.049 80.2365 418.223 80.5658C418.405 80.8865 418.639 81.1335 418.925 81.3068C419.219 81.4802 419.531 81.5668 419.861 81.5668C420.199 81.5668 420.515 81.4845 420.81 81.3198C421.104 81.1465 421.338 80.9038 421.512 80.5918C421.685 80.2712 421.772 79.8898 421.772 79.4478ZM432.272 75.8468L427.813 86.4548H425.876L427.436 82.8668L424.55 75.8468H426.591L428.45 80.8778L430.335 75.8468H432.272ZM436.451 83.1658C435.758 83.1658 435.134 83.0142 434.579 82.7108C434.025 82.3988 433.587 81.9612 433.266 81.3978C432.954 80.8345 432.798 80.1845 432.798 79.4478C432.798 78.7112 432.959 78.0612 433.279 77.4978C433.609 76.9345 434.055 76.5012 434.618 76.1978C435.182 75.8858 435.81 75.7298 436.503 75.7298C437.197 75.7298 437.825 75.8858 438.388 76.1978C438.952 76.5012 439.394 76.9345 439.714 77.4978C440.044 78.0612 440.208 78.7112 440.208 79.4478C440.208 80.1845 440.039 80.8345 439.701 81.3978C439.372 81.9612 438.921 82.3988 438.349 82.7108C437.786 83.0142 437.153 83.1658 436.451 83.1658ZM436.451 81.5798C436.781 81.5798 437.088 81.5018 437.374 81.3458C437.669 81.1812 437.903 80.9385 438.076 80.6178C438.25 80.2972 438.336 79.9072 438.336 79.4478C438.336 78.7632 438.154 78.2388 437.79 77.8748C437.435 77.5022 436.997 77.3158 436.477 77.3158C435.957 77.3158 435.52 77.5022 435.164 77.8748C434.818 78.2388 434.644 78.7632 434.644 79.4478C434.644 80.1325 434.813 80.6612 435.151 81.0338C435.498 81.3978 435.931 81.5798 436.451 81.5798ZM448.342 75.8468V83.0488H446.509V82.1388C446.275 82.4508 445.968 82.6978 445.586 82.8798C445.214 83.0532 444.806 83.1398 444.364 83.1398C443.801 83.1398 443.303 83.0228 442.869 82.7888C442.436 82.5462 442.094 82.1952 441.842 81.7358C441.6 81.2678 441.478 80.7132 441.478 80.0718V75.8468H443.298V79.8118C443.298 80.3838 443.441 80.8258 443.727 81.1378C444.013 81.4412 444.403 81.5928 444.897 81.5928C445.4 81.5928 445.794 81.4412 446.08 81.1378C446.366 80.8258 446.509 80.3838 446.509 79.8118V75.8468H448.342ZM452.257 77.3418V80.8258C452.257 81.0685 452.314 81.2462 452.426 81.3588C452.548 81.4628 452.747 81.5148 453.024 81.5148H453.869V83.0488H452.725C451.191 83.0488 450.424 82.3035 450.424 80.8128V77.3418H449.566V75.8468H450.424V74.0658H452.257V75.8468H453.869V77.3418H452.257Z" fill="#01070D"/>
<rect x="0.908203" y="101.734" width="221.674" height="10.8664" rx="5.43318" fill="#EDF0F3"/>
<rect x="295.387" y="101.734" width="111.923" height="10.8664" rx="5.43318" fill="#EDF0F3"/>
<rect x="0.908203" y="198.445" width="221.674" height="10.8664" rx="5.43318" fill="#EDF0F3"/>
<rect x="0.908203" y="242.997" width="221.674" height="10.8664" rx="5.43318" fill="#EDF0F3"/>
<rect x="0.908203" y="286.462" width="135.829" height="10.8664" rx="5.43318" fill="#EDF0F3"/>
<rect x="0.908203" y="121.294" width="135.829" height="10.8664" rx="5.43318" fill="#E2E2E2"/>
<rect x="295.387" y="121.294" width="68.458" height="10.8664" rx="5.43318" fill="#E2E2E2"/>
<rect x="0.908203" y="221.264" width="135.829" height="10.8664" rx="5.43318" fill="#E2E2E2"/>
<rect x="0.908203" y="265.816" width="105.404" height="10.8664" rx="5.43318" fill="#E2E2E2"/>
<rect x="0.908203" y="309.282" width="199.941" height="10.8664" rx="5.43318" fill="#E2E2E2"/>
<path opacity="0.6" d="M6.5512 28.6802H12.7612V31.6772H2.7712V12.8312H6.5512V28.6802ZM14.1918 24.1442C14.1918 22.6322 14.4888 21.2912 15.0828 20.1212C15.6948 18.9512 16.5138 18.0512 17.5398 17.4212C18.5838 16.7912 19.7448 16.4762 21.0228 16.4762C22.1388 16.4762 23.1108 16.7012 23.9388 17.1512C24.7848 17.6012 25.4598 18.1682 25.9638 18.8522V16.7192H29.7708V31.6772H25.9638V29.4902C25.4778 30.1922 24.8028 30.7772 23.9388 31.2452C23.0928 31.6952 22.1118 31.9202 20.9958 31.9202C19.7358 31.9202 18.5838 31.5962 17.5398 30.9482C16.5138 30.3002 15.6948 29.3912 15.0828 28.2212C14.4888 27.0332 14.1918 25.6742 14.1918 24.1442ZM25.9638 24.1982C25.9638 23.2802 25.7838 22.4972 25.4238 21.8492C25.0638 21.1832 24.5778 20.6792 23.9658 20.3372C23.3538 19.9772 22.6968 19.7972 21.9948 19.7972C21.2928 19.7972 20.6448 19.9682 20.0508 20.3102C19.4568 20.6522 18.9708 21.1562 18.5928 21.8222C18.2328 22.4702 18.0528 23.2442 18.0528 24.1442C18.0528 25.0442 18.2328 25.8362 18.5928 26.5202C18.9708 27.1862 19.4568 27.6992 20.0508 28.0592C20.6628 28.4192 21.3108 28.5992 21.9948 28.5992C22.6968 28.5992 23.3538 28.4282 23.9658 28.0862C24.5778 27.7262 25.0638 27.2222 25.4238 26.5742C25.7838 25.9082 25.9638 25.1162 25.9638 24.1982ZM39.1866 31.9202C37.9626 31.9202 36.8646 31.7042 35.8926 31.2722C34.9206 30.8222 34.1466 30.2192 33.5706 29.4632C33.0126 28.7072 32.7066 27.8702 32.6526 26.9522H36.4596C36.5316 27.5282 36.8106 28.0052 37.2966 28.3832C37.8006 28.7612 38.4216 28.9502 39.1596 28.9502C39.8796 28.9502 40.4376 28.8062 40.8336 28.5182C41.2476 28.2302 41.4546 27.8612 41.4546 27.4112C41.4546 26.9252 41.2026 26.5652 40.6986 26.3312C40.2126 26.0792 39.4296 25.8092 38.3496 25.5212C37.2336 25.2512 36.3156 24.9722 35.5956 24.6842C34.8936 24.3962 34.2816 23.9552 33.7596 23.3612C33.2556 22.7672 33.0036 21.9662 33.0036 20.9582C33.0036 20.1302 33.2376 19.3742 33.7056 18.6902C34.1916 18.0062 34.8756 17.4662 35.7576 17.0702C36.6576 16.6742 37.7106 16.4762 38.9166 16.4762C40.6986 16.4762 42.1206 16.9262 43.1826 17.8262C44.2446 18.7082 44.8296 19.9052 44.9376 21.4172H41.3196C41.2656 20.8232 41.0136 20.3552 40.5636 20.0132C40.1316 19.6532 39.5466 19.4732 38.8086 19.4732C38.1246 19.4732 37.5936 19.5992 37.2156 19.8512C36.8556 20.1032 36.6756 20.4542 36.6756 20.9042C36.6756 21.4082 36.9276 21.7952 37.4316 22.0652C37.9356 22.3172 38.7186 22.5782 39.7806 22.8482C40.8606 23.1182 41.7516 23.3972 42.4536 23.6852C43.1556 23.9732 43.7586 24.4232 44.2626 25.0352C44.7846 25.6292 45.0546 26.4212 45.0726 27.4112C45.0726 28.2752 44.8296 29.0492 44.3436 29.7332C43.8756 30.4172 43.1916 30.9572 42.2916 31.3532C41.4096 31.7312 40.3746 31.9202 39.1866 31.9202ZM52.5765 19.8242V27.0602C52.5765 27.5642 52.6935 27.9332 52.9275 28.1672C53.1795 28.3832 53.5935 28.4912 54.1695 28.4912H55.9245V31.6772H53.5485C50.3625 31.6772 48.7695 30.1292 48.7695 27.0332V19.8242H46.9875V16.7192H48.7695V13.0202H52.5765V16.7192H55.9245V19.8242H52.5765ZM77.1729 14.8562L69.9909 31.6772H66.1569L73.3929 15.2882H64.1589V12.0482H77.1729V14.8562ZM92.8905 12.8312C94.8705 12.8312 96.6075 13.2182 98.1015 13.9922C99.6135 14.7662 100.774 15.8732 101.584 17.3132C102.412 18.7352 102.826 20.3912 102.826 22.2812C102.826 24.1712 102.412 25.8272 101.584 27.2492C100.774 28.6532 99.6135 29.7422 98.1015 30.5162C96.6075 31.2902 94.8705 31.6772 92.8905 31.6772H86.3025V12.8312H92.8905ZM92.7555 28.4642C94.7355 28.4642 96.2655 27.9242 97.3455 26.8442C98.4255 25.7642 98.9655 24.2432 98.9655 22.2812C98.9655 20.3192 98.4255 18.7892 97.3455 17.6912C96.2655 16.5752 94.7355 16.0172 92.7555 16.0172H90.0825V28.4642H92.7555ZM104.684 24.1442C104.684 22.6322 104.981 21.2912 105.575 20.1212C106.187 18.9512 107.006 18.0512 108.032 17.4212C109.076 16.7912 110.237 16.4762 111.515 16.4762C112.631 16.4762 113.603 16.7012 114.431 17.1512C115.277 17.6012 115.952 18.1682 116.456 18.8522V16.7192H120.263V31.6772H116.456V29.4902C115.97 30.1922 115.295 30.7772 114.431 31.2452C113.585 31.6952 112.604 31.9202 111.488 31.9202C110.228 31.9202 109.076 31.5962 108.032 30.9482C107.006 30.3002 106.187 29.3912 105.575 28.2212C104.981 27.0332 104.684 25.6742 104.684 24.1442ZM116.456 24.1982C116.456 23.2802 116.276 22.4972 115.916 21.8492C115.556 21.1832 115.07 20.6792 114.458 20.3372C113.846 19.9772 113.189 19.7972 112.487 19.7972C111.785 19.7972 111.137 19.9682 110.543 20.3102C109.949 20.6522 109.463 21.1562 109.085 21.8222C108.725 22.4702 108.545 23.2442 108.545 24.1442C108.545 25.0442 108.725 25.8362 109.085 26.5202C109.463 27.1862 109.949 27.6992 110.543 28.0592C111.155 28.4192 111.803 28.5992 112.487 28.5992C113.189 28.5992 113.846 28.4282 114.458 28.0862C115.07 27.7262 115.556 27.2222 115.916 26.5742C116.276 25.9082 116.456 25.1162 116.456 24.1982ZM138.265 16.7192L129.004 38.7512H124.981L128.221 31.2992L122.227 16.7192H126.466L130.327 27.1682L134.242 16.7192H138.265ZM146.026 31.9202C144.802 31.9202 143.704 31.7042 142.732 31.2722C141.76 30.8222 140.986 30.2192 140.41 29.4632C139.852 28.7072 139.546 27.8702 139.492 26.9522H143.299C143.371 27.5282 143.65 28.0052 144.136 28.3832C144.64 28.7612 145.261 28.9502 145.999 28.9502C146.719 28.9502 147.277 28.8062 147.673 28.5182C148.087 28.2302 148.294 27.8612 148.294 27.4112C148.294 26.9252 148.042 26.5652 147.538 26.3312C147.052 26.0792 146.269 25.8092 145.189 25.5212C144.073 25.2512 143.155 24.9722 142.435 24.6842C141.733 24.3962 141.121 23.9552 140.599 23.3612C140.095 22.7672 139.843 21.9662 139.843 20.9582C139.843 20.1302 140.077 19.3742 140.545 18.6902C141.031 18.0062 141.715 17.4662 142.597 17.0702C143.497 16.6742 144.55 16.4762 145.756 16.4762C147.538 16.4762 148.96 16.9262 150.022 17.8262C151.084 18.7082 151.669 19.9052 151.777 21.4172H148.159C148.105 20.8232 147.853 20.3552 147.403 20.0132C146.971 19.6532 146.386 19.4732 145.648 19.4732C144.964 19.4732 144.433 19.5992 144.055 19.8512C143.695 20.1032 143.515 20.4542 143.515 20.9042C143.515 21.4082 143.767 21.7952 144.271 22.0652C144.775 22.3172 145.558 22.5782 146.62 22.8482C147.7 23.1182 148.591 23.3972 149.293 23.6852C149.995 23.9732 150.598 24.4232 151.102 25.0352C151.624 25.6292 151.894 26.4212 151.912 27.4112C151.912 28.2752 151.669 29.0492 151.183 29.7332C150.715 30.4172 150.031 30.9572 149.131 31.3532C148.249 31.7312 147.214 31.9202 146.026 31.9202Z" fill="#01070D"/>
</svg>
