<svg width="167" height="72" viewBox="0 0 167 72" fill="none" xmlns="http://www.w3.org/2000/svg">
<path d="M15.1172 26.7939C15.1172 24.3087 17.1319 22.2939 19.6172 22.2939H20.3969C22.8822 22.2939 24.8969 24.3087 24.8969 26.7939V71.8311H15.1172V26.7939Z" fill="#1D92FF"/>
<path d="M43.3711 30.4907C43.3711 28.0054 45.3858 25.9907 47.8711 25.9907H48.6508C51.1361 25.9907 53.1508 28.0054 53.1508 30.4907V71.831H43.3711V30.4907Z" fill="#1D92FF"/>
<path d="M71.623 43.0601C71.623 40.5748 73.6378 38.5601 76.123 38.5601H76.9028C79.388 38.5601 81.4028 40.5748 81.4028 43.0601V71.8313H71.623V43.0601Z" fill="#1D92FF"/>
<path d="M99.875 10.5283C99.875 8.04304 101.89 6.02832 104.375 6.02832H105.155C107.64 6.02832 109.655 8.04304 109.655 10.5283V71.8314H99.875V10.5283Z" fill="#1D92FF"/>
<path d="M128.129 23.0972C128.129 20.6119 130.144 18.5972 132.629 18.5972H133.409C135.894 18.5972 137.909 20.6119 137.909 23.0972V71.8311H128.129V23.0972Z" fill="#1D92FF"/>
<path d="M156.381 43.0601C156.381 40.5748 158.396 38.5601 160.881 38.5601H161.661C164.146 38.5601 166.161 40.5748 166.161 43.0601V71.8313H156.381V43.0601Z" fill="#1D92FF"/>
<path opacity="0.15" d="M0.992188 37.8843C0.992188 35.399 3.00691 33.3843 5.49219 33.3843H6.27191C8.75719 33.3843 10.7719 35.399 10.7719 37.8843V71.831H0.992188V37.8843Z" fill="#1D92FF"/>
<path opacity="0.15" d="M29.2441 7.5708C29.2441 5.08552 31.2589 3.0708 33.7441 3.0708H34.5239C37.0091 3.0708 39.0239 5.08552 39.0239 7.5708V71.8313H29.2441V7.5708Z" fill="#1D92FF"/>
<path opacity="0.15" d="M57.498 4.61328C57.498 2.128 59.5128 0.113281 61.998 0.113281H62.7778C65.263 0.113281 67.2778 2.128 67.2778 4.61328V71.8312H57.498V4.61328Z" fill="#1D92FF"/>
<path opacity="0.15" d="M85.75 30.4907C85.75 28.0054 87.7647 25.9907 90.25 25.9907H91.0297C93.515 25.9907 95.5297 28.0054 95.5297 30.4907V71.831H85.75V30.4907Z" fill="#1D92FF"/>
<path opacity="0.15" d="M114.002 53.4111C114.002 50.9259 116.017 48.9111 118.502 48.9111H119.282C121.767 48.9111 123.782 50.9259 123.782 53.4111V71.8313H114.002V53.4111Z" fill="#1D92FF"/>
<path opacity="0.15" d="M142.256 7.5708C142.256 5.08552 144.271 3.0708 146.756 3.0708H147.536C150.021 3.0708 152.036 5.08552 152.036 7.5708V71.8313H142.256V7.5708Z" fill="#1D92FF"/>
</svg>
