<svg width="14" height="14" viewBox="0 0 14 14" fill="none" xmlns="http://www.w3.org/2000/svg">
<path d="M9.57987 4.89648C10.6687 4.89648 11.7128 5.329 12.4827 6.09889C13.2526 6.86877 13.6851 7.91296 13.6851 9.00175V13.7912H10.9483V9.00175C10.9483 8.63882 10.8041 8.29076 10.5475 8.03413C10.2909 7.7775 9.9428 7.63333 9.57987 7.63333C9.21694 7.63333 8.86888 7.7775 8.61225 8.03413C8.35562 8.29076 8.21145 8.63882 8.21145 9.00175V13.7912H5.47461V9.00175C5.47461 7.91296 5.90713 6.86877 6.67701 6.09889C7.4469 5.329 8.49109 4.89648 9.57987 4.89648Z" fill="white"/>
<path d="M2.73684 5.58008H0V13.7906H2.73684V5.58008Z" fill="white"/>
<path d="M1.36842 3.52786C2.12418 3.52786 2.73684 2.91519 2.73684 2.15944C2.73684 1.40368 2.12418 0.791016 1.36842 0.791016C0.612663 0.791016 0 1.40368 0 2.15944C0 2.91519 0.612663 3.52786 1.36842 3.52786Z" fill="white"/>
</svg>
