<svg width="10" height="16" viewBox="0 0 10 16" fill="none" xmlns="http://www.w3.org/2000/svg">
<path d="M2.89028 6.61207V3.88644C2.89028 2.88072 3.61747 2.06449 4.51347 2.06449C5.40947 2.06449 6.13666 2.88072 6.13666 3.88644V6.61207C6.92228 6.02176 7.43521 5.02333 7.43521 3.88644C7.43521 2.07178 6.13016 0.606934 4.51347 0.606934C2.89677 0.606934 1.59173 2.07178 1.59173 3.88644C1.59173 5.02333 2.10466 6.02176 2.89028 6.61207ZM9.27915 9.98631L6.33144 8.33927C6.22106 8.28826 6.10419 8.25911 5.98083 8.25911H5.48738V3.88644C5.48738 3.28155 5.05237 2.79327 4.51347 2.79327C3.97457 2.79327 3.53956 3.28155 3.53956 3.88644V11.7135L1.31254 11.1888C1.2606 11.1815 1.21515 11.1669 1.15671 11.1669C0.955439 11.1669 0.773642 11.2617 0.643787 11.4074L0.130859 11.9905L3.33828 15.5906C3.51358 15.7874 3.76031 15.9113 4.02651 15.9113H8.43509C8.92205 15.9113 9.29863 15.5105 9.37005 14.9784L9.85701 11.1378C9.8635 11.0868 9.86999 11.0358 9.86999 10.992C9.86999 10.5402 9.62327 10.1466 9.27915 9.98631Z" fill="#1D92FF"/>
</svg>
