<svg width="14" height="13" viewBox="0 0 14 13" fill="none" xmlns="http://www.w3.org/2000/svg">
<path d="M14 0.79774C13.3906 1.24947 12.7159 1.59497 12.0018 1.82094C11.6186 1.35783 11.1092 1.02959 10.5427 0.880617C9.9761 0.731641 9.37968 0.769115 8.83405 0.987971C8.28842 1.20683 7.81992 1.59651 7.4919 2.10431C7.16388 2.61211 6.99217 3.21352 7 3.82722V4.49598C5.88168 4.52645 4.77354 4.2658 3.77428 3.73723C2.77502 3.20867 1.91566 2.4286 1.27273 1.4665C1.27273 1.4665 -1.27273 7.48533 4.45455 10.1604C3.14397 11.0953 1.58274 11.564 0 11.4979C5.72727 14.8417 12.7273 11.4979 12.7273 3.80716C12.7267 3.62088 12.7096 3.43506 12.6764 3.25209C13.3258 2.57898 13.7842 1.72913 14 0.79774Z" fill="white"/>
</svg>
